<svg width="66" height="66" viewBox="0 0 66 66" fill="none" xmlns="http://www.w3.org/2000/svg">
<path d="M30.25 46.75H35.75V35.75H46.75V30.25H35.75V19.25H30.25V30.25H19.25V35.75H30.25V46.75ZM33 60.5C29.1958 60.5 25.6208 59.7896 22.275 58.3688C18.9292 56.9021 16.0188 54.9312 13.5438 52.4562C11.0688 49.9812 9.09792 47.0708 7.63125 43.725C6.21042 40.3792 5.5 36.8042 5.5 33C5.5 29.1958 6.21042 25.6208 7.63125 22.275C9.09792 18.9292 11.0688 16.0187 13.5438 13.5437C16.0188 11.0687 18.9292 9.12083 22.275 7.7C25.6208 6.23333 29.1958 5.5 33 5.5C36.8042 5.5 40.3792 6.23333 43.725 7.7C47.0708 9.12083 49.9813 11.0687 52.4563 13.5437C54.9313 16.0187 56.8792 18.9292 58.3 22.275C59.7667 25.6208 60.5 29.1958 60.5 33C60.5 36.8042 59.7667 40.3792 58.3 43.725C56.8792 47.0708 54.9313 49.9812 52.4563 52.4562C49.9813 54.9312 47.0708 56.9021 43.725 58.3688C40.3792 59.7896 36.8042 60.5 33 60.5ZM33 55C39.1417 55 44.3438 52.8687 48.6063 48.6062C52.8688 44.3437 55 39.1417 55 33C55 26.8583 52.8688 21.6562 48.6063 17.3937C44.3438 13.1312 39.1417 11 33 11C26.8583 11 21.6562 13.1312 17.3937 17.3937C13.1312 21.6562 11 26.8583 11 33C11 39.1417 13.1312 44.3437 17.3937 48.6062C21.6562 52.8687 26.8583 55 33 55Z" fill="#852221"/>
</svg>
