<svg xmlns="http://www.w3.org/2000/svg" width="177" height="177" viewBox="0 0 177 177" fill="none">
  <rect width="177" height="177" rx="88.5" fill="#D9D9D9"/>
  <path fill-rule="evenodd" clip-rule="evenodd" d="M115.051 70.8C115.051 85.4632 103.164 97.35 88.5011 97.35C73.8379 97.35 61.9511 85.4632 61.9511 70.8C61.9511 56.1368 73.8379 44.25 88.5011 44.25C103.164 44.25 115.051 56.1368 115.051 70.8ZM106.201 70.8C106.201 80.5754 98.2765 88.5 88.5011 88.5C78.7256 88.5 70.8011 80.5754 70.8011 70.8C70.8011 61.0246 78.7256 53.1 88.5011 53.1C98.2765 53.1 106.201 61.0246 106.201 70.8Z" fill="#7F2323"/>
  <path d="M88.5011 110.625C59.8519 110.625 35.4421 127.566 26.1438 151.3C28.4089 153.549 30.7951 155.677 33.2916 157.672C40.2156 135.882 61.9366 119.475 88.5011 119.475C115.066 119.475 136.787 135.882 143.711 157.672C146.207 155.677 148.593 153.549 150.858 151.3C141.56 127.566 117.15 110.625 88.5011 110.625Z" fill="#7F2323"/>
</svg>
