<svg width="20" height="20" viewBox="0 0 20 20" fill="none" xmlns="http://www.w3.org/2000/svg">
<path d="M0 16.6666V14.3541C0 13.8819 0.118056 13.4444 0.354167 13.0416C0.590278 12.6389 0.916667 12.3333 1.33333 12.125C1.52778 12.0278 1.71528 11.9375 1.89583 11.8541C2.09028 11.7708 2.29167 11.6944 2.5 11.625V16.6666H0ZM3.33333 10.8333C2.63889 10.8333 2.04861 10.5903 1.5625 10.1041C1.07639 9.61804 0.833333 9.02776 0.833333 8.33331C0.833333 7.63887 1.07639 7.04859 1.5625 6.56248C2.04861 6.07637 2.63889 5.83331 3.33333 5.83331C4.02778 5.83331 4.61806 6.07637 5.10417 6.56248C5.59028 7.04859 5.83333 7.63887 5.83333 8.33331C5.83333 9.02776 5.59028 9.61804 5.10417 10.1041C4.61806 10.5903 4.02778 10.8333 3.33333 10.8333ZM3.33333 9.16665C3.56944 9.16665 3.76389 9.09026 3.91667 8.93748C4.08333 8.77081 4.16667 8.56942 4.16667 8.33331C4.16667 8.0972 4.08333 7.90276 3.91667 7.74998C3.76389 7.58331 3.56944 7.49998 3.33333 7.49998C3.09722 7.49998 2.89583 7.58331 2.72917 7.74998C2.57639 7.90276 2.5 8.0972 2.5 8.33331C2.5 8.56942 2.57639 8.77081 2.72917 8.93748C2.89583 9.09026 3.09722 9.16665 3.33333 9.16665ZM3.33333 16.6666V14.3333C3.33333 13.8611 3.45139 13.4305 3.6875 13.0416C3.9375 12.6389 4.26389 12.3333 4.66667 12.125C5.52778 11.6944 6.40278 11.375 7.29167 11.1666C8.18056 10.9444 9.08333 10.8333 10 10.8333C10.9167 10.8333 11.8194 10.9444 12.7083 11.1666C13.5972 11.375 14.4722 11.6944 15.3333 12.125C15.7361 12.3333 16.0556 12.6389 16.2917 13.0416C16.5417 13.4305 16.6667 13.8611 16.6667 14.3333V16.6666H3.33333ZM5 15H15V14.3333C15 14.1805 14.9583 14.0416 14.875 13.9166C14.8056 13.7916 14.7083 13.6944 14.5833 13.625C13.8333 13.25 13.0764 12.9722 12.3125 12.7916C11.5486 12.5972 10.7778 12.5 10 12.5C9.22222 12.5 8.45139 12.5972 7.6875 12.7916C6.92361 12.9722 6.16667 13.25 5.41667 13.625C5.29167 13.6944 5.1875 13.7916 5.10417 13.9166C5.03472 14.0416 5 14.1805 5 14.3333V15ZM10 9.99998C9.08333 9.99998 8.29861 9.67359 7.64583 9.02081C6.99306 8.36803 6.66667 7.58331 6.66667 6.66665C6.66667 5.74998 6.99306 4.96526 7.64583 4.31248C8.29861 3.6597 9.08333 3.33331 10 3.33331C10.9167 3.33331 11.7014 3.6597 12.3542 4.31248C13.0069 4.96526 13.3333 5.74998 13.3333 6.66665C13.3333 7.58331 13.0069 8.36803 12.3542 9.02081C11.7014 9.67359 10.9167 9.99998 10 9.99998ZM10 8.33331C10.4583 8.33331 10.8472 8.17359 11.1667 7.85415C11.5 7.52081 11.6667 7.12498 11.6667 6.66665C11.6667 6.20831 11.5 5.81942 11.1667 5.49998C10.8472 5.16665 10.4583 4.99998 10 4.99998C9.54167 4.99998 9.14583 5.16665 8.8125 5.49998C8.49306 5.81942 8.33333 6.20831 8.33333 6.66665C8.33333 7.12498 8.49306 7.52081 8.8125 7.85415C9.14583 8.17359 9.54167 8.33331 10 8.33331ZM16.6667 10.8333C15.9722 10.8333 15.3819 10.5903 14.8958 10.1041C14.4097 9.61804 14.1667 9.02776 14.1667 8.33331C14.1667 7.63887 14.4097 7.04859 14.8958 6.56248C15.3819 6.07637 15.9722 5.83331 16.6667 5.83331C17.3611 5.83331 17.9514 6.07637 18.4375 6.56248C18.9236 7.04859 19.1667 7.63887 19.1667 8.33331C19.1667 9.02776 18.9236 9.61804 18.4375 10.1041C17.9514 10.5903 17.3611 10.8333 16.6667 10.8333ZM16.6667 9.16665C16.9028 9.16665 17.0972 9.09026 17.25 8.93748C17.4167 8.77081 17.5 8.56942 17.5 8.33331C17.5 8.0972 17.4167 7.90276 17.25 7.74998C17.0972 7.58331 16.9028 7.49998 16.6667 7.49998C16.4306 7.49998 16.2292 7.58331 16.0625 7.74998C15.9097 7.90276 15.8333 8.0972 15.8333 8.33331C15.8333 8.56942 15.9097 8.77081 16.0625 8.93748C16.2292 9.09026 16.4306 9.16665 16.6667 9.16665ZM17.5 16.6666V11.625C17.7083 11.6944 17.9028 11.7708 18.0833 11.8541C18.2778 11.9375 18.4722 12.0278 18.6667 12.125C19.0833 12.3333 19.4097 12.6389 19.6458 13.0416C19.8819 13.4444 20 13.8819 20 14.3541V16.6666H17.5Z" fill="#AD7070"/>
</svg>
