<svg width="20" height="20" viewBox="0 0 20 20" fill="none" xmlns="http://www.w3.org/2000/svg">
<path d="M10.0001 18.3334C9.80564 18.3334 9.63897 18.2778 9.50008 18.1667C9.36119 18.0556 9.25703 17.9097 9.18758 17.7292C8.92369 16.9514 8.59036 16.2222 8.18758 15.5417C7.79869 14.8611 7.25008 14.0625 6.54175 13.1459C5.83342 12.2292 5.25703 11.3542 4.81258 10.5209C4.38203 9.68752 4.16675 8.68057 4.16675 7.50002C4.16675 5.87502 4.72925 4.50002 5.85425 3.37502C6.99314 2.23613 8.37508 1.66669 10.0001 1.66669C11.6251 1.66669 13.0001 2.23613 14.1251 3.37502C15.264 4.50002 15.8334 5.87502 15.8334 7.50002C15.8334 8.76391 15.5904 9.81946 15.1042 10.6667C14.632 11.5 14.0834 12.3264 13.4584 13.1459C12.7084 14.1459 12.139 14.9792 11.7501 15.6459C11.3751 16.2986 11.0626 16.9931 10.8126 17.7292C10.7431 17.9236 10.632 18.0764 10.4792 18.1875C10.3404 18.2847 10.1806 18.3334 10.0001 18.3334ZM10.0001 15.3542C10.2362 14.882 10.5001 14.4167 10.7917 13.9584C11.0973 13.5 11.5417 12.8889 12.1251 12.125C12.7223 11.3472 13.2084 10.632 13.5834 9.97919C13.9723 9.31252 14.1667 8.48613 14.1667 7.50002C14.1667 6.34724 13.757 5.36808 12.9376 4.56252C12.132 3.74308 11.1529 3.33335 10.0001 3.33335C8.8473 3.33335 7.86119 3.74308 7.04175 4.56252C6.23619 5.36808 5.83342 6.34724 5.83342 7.50002C5.83342 8.48613 6.02092 9.31252 6.39591 9.97919C6.7848 10.632 7.27786 11.3472 7.87508 12.125C8.45842 12.8889 8.89592 13.5 9.18758 13.9584C9.49314 14.4167 9.76397 14.882 10.0001 15.3542ZM10.0001 9.58335C10.5834 9.58335 11.0765 9.38196 11.4792 8.97919C11.882 8.57641 12.0834 8.08335 12.0834 7.50002C12.0834 6.91669 11.882 6.42363 11.4792 6.02085C11.0765 5.61808 10.5834 5.41669 10.0001 5.41669C9.41675 5.41669 8.92369 5.61808 8.52092 6.02085C8.11814 6.42363 7.91675 6.91669 7.91675 7.50002C7.91675 8.08335 8.11814 8.57641 8.52092 8.97919C8.92369 9.38196 9.41675 9.58335 10.0001 9.58335Z" fill="#AD7070"/>
</svg>
